<svg width="230" height="74" viewBox="0 0 230 74" fill="none" xmlns="http://www.w3.org/2000/svg">
<rect x="4" y="4.64464" width="100" height="65" fill="#091942"/>
<path d="M122.753 27.6446H121.608C121.54 27.3153 121.422 27.026 121.252 26.7767C121.086 26.5275 120.883 26.3182 120.643 26.1489C120.406 25.9766 120.143 25.8473 119.854 25.7611C119.564 25.6749 119.263 25.6319 118.949 25.6319C118.376 25.6319 117.858 25.7765 117.393 26.0658C116.931 26.3551 116.564 26.7814 116.29 27.3446C116.019 27.9078 115.884 28.5987 115.884 29.4174C115.884 30.236 116.019 30.927 116.29 31.4902C116.564 32.0534 116.931 32.4796 117.393 32.7689C117.858 33.0582 118.376 33.2029 118.949 33.2029C119.263 33.2029 119.564 33.1598 119.854 33.0736C120.143 32.9874 120.406 32.8597 120.643 32.6904C120.883 32.5181 121.086 32.3073 121.252 32.058C121.422 31.8056 121.54 31.5163 121.608 31.1901H122.753C122.667 31.6733 122.51 32.1057 122.282 32.4873C122.054 32.869 121.771 33.1936 121.433 33.4614C121.094 33.7261 120.714 33.9277 120.292 34.0662C119.874 34.2047 119.426 34.2739 118.949 34.2739C118.143 34.2739 117.425 34.0769 116.798 33.683C116.17 33.2891 115.676 32.7289 115.316 32.0026C114.956 31.2763 114.776 30.4145 114.776 29.4174C114.776 28.4202 114.956 27.5585 115.316 26.8321C115.676 26.1058 116.17 25.5457 116.798 25.1517C117.425 24.7578 118.143 24.5608 118.949 24.5608C119.426 24.5608 119.874 24.6301 120.292 24.7686C120.714 24.9071 121.094 25.1102 121.433 25.3779C121.771 25.6426 122.054 25.9658 122.282 26.3474C122.51 26.726 122.667 27.1584 122.753 27.6446ZM132.58 29.4174C132.58 30.4145 132.4 31.2763 132.04 32.0026C131.68 32.7289 131.186 33.2891 130.558 33.683C129.93 34.0769 129.213 34.2739 128.407 34.2739C127.601 34.2739 126.883 34.0769 126.256 33.683C125.628 33.2891 125.134 32.7289 124.774 32.0026C124.414 31.2763 124.234 30.4145 124.234 29.4174C124.234 28.4202 124.414 27.5585 124.774 26.8321C125.134 26.1058 125.628 25.5457 126.256 25.1517C126.883 24.7578 127.601 24.5608 128.407 24.5608C129.213 24.5608 129.93 24.7578 130.558 25.1517C131.186 25.5457 131.68 26.1058 132.04 26.8321C132.4 27.5585 132.58 28.4202 132.58 29.4174ZM131.472 29.4174C131.472 28.5987 131.335 27.9078 131.061 27.3446C130.791 26.7814 130.423 26.3551 129.958 26.0658C129.496 25.7765 128.979 25.6319 128.407 25.6319C127.834 25.6319 127.316 25.7765 126.851 26.0658C126.389 26.3551 126.022 26.7814 125.748 27.3446C125.477 27.9078 125.342 28.5987 125.342 29.4174C125.342 30.236 125.477 30.927 125.748 31.4902C126.022 32.0534 126.389 32.4796 126.851 32.7689C127.316 33.0582 127.834 33.2029 128.407 33.2029C128.979 33.2029 129.496 33.0582 129.958 32.7689C130.423 32.4796 130.791 32.0534 131.061 31.4902C131.335 30.927 131.472 30.236 131.472 29.4174ZM142.002 24.6901V34.1446H140.894L135.742 26.7213H135.65V34.1446H134.505V24.6901H135.613L140.784 32.1319H140.876V24.6901H142.002ZM149.464 27.0537C149.408 26.5859 149.184 26.2228 148.79 25.9642C148.396 25.7057 147.913 25.5765 147.34 25.5765C146.922 25.5765 146.555 25.6442 146.241 25.7796C145.931 25.915 145.688 26.1012 145.512 26.3382C145.34 26.5752 145.254 26.8444 145.254 27.1461C145.254 27.3984 145.314 27.6154 145.434 27.797C145.557 27.9755 145.714 28.1248 145.904 28.2448C146.095 28.3617 146.295 28.4587 146.505 28.5356C146.714 28.6095 146.906 28.6695 147.082 28.7157L148.042 28.9742C148.288 29.0388 148.562 29.1281 148.864 29.2419C149.168 29.3558 149.459 29.5112 149.736 29.7082C150.016 29.9021 150.247 30.1514 150.429 30.4561C150.61 30.7608 150.701 31.1347 150.701 31.5779C150.701 32.0888 150.567 32.5504 150.299 32.9628C150.035 33.3752 149.647 33.703 149.136 33.9461C148.628 34.1893 148.011 34.3108 147.285 34.3108C146.608 34.3108 146.021 34.2016 145.526 33.9831C145.033 33.7645 144.646 33.4599 144.363 33.069C144.083 32.6781 143.924 32.2242 143.887 31.7071H145.069C145.1 32.0641 145.22 32.3596 145.429 32.5935C145.641 32.8243 145.909 32.9967 146.232 33.1105C146.558 33.2213 146.909 33.2767 147.285 33.2767C147.722 33.2767 148.114 33.206 148.462 33.0644C148.81 32.9197 149.085 32.7197 149.288 32.4642C149.491 32.2057 149.593 31.9041 149.593 31.5594C149.593 31.2455 149.505 30.99 149.33 30.7931C149.154 30.5961 148.924 30.4361 148.637 30.313C148.351 30.1899 148.042 30.0821 147.71 29.9898L146.546 29.6574C145.808 29.4451 145.223 29.1419 144.792 28.748C144.361 28.354 144.146 27.8385 144.146 27.2015C144.146 26.6721 144.289 26.2105 144.575 25.8165C144.864 25.4195 145.252 25.1117 145.738 24.8932C146.228 24.6716 146.774 24.5608 147.377 24.5608C147.987 24.5608 148.528 24.6701 149.002 24.8886C149.476 25.104 149.852 25.3995 150.129 25.775C150.409 26.1504 150.556 26.5767 150.572 27.0537H149.464ZM158.788 24.6901H159.933V30.95C159.933 31.5963 159.78 32.1734 159.476 32.6812C159.174 33.1859 158.748 33.5845 158.197 33.8769C157.646 34.1662 157 34.3108 156.258 34.3108C155.516 34.3108 154.87 34.1662 154.319 33.8769C153.768 33.5845 153.34 33.1859 153.036 32.6812C152.734 32.1734 152.583 31.5963 152.583 30.95V24.6901H153.728V30.8577C153.728 31.3194 153.83 31.7302 154.033 32.0903C154.236 32.4473 154.525 32.7289 154.901 32.9351C155.279 33.1382 155.732 33.2398 156.258 33.2398C156.784 33.2398 157.237 33.1382 157.615 32.9351C157.994 32.7289 158.283 32.4473 158.483 32.0903C158.686 31.7302 158.788 31.3194 158.788 30.8577V24.6901ZM162.219 34.1446V24.6901H163.364V33.129H167.759V34.1446H162.219ZM167.758 25.7057V24.6901H174.849V25.7057H171.876V34.1446H170.731V25.7057H167.758ZM184.199 29.4174C184.199 30.4145 184.019 31.2763 183.659 32.0026C183.299 32.7289 182.805 33.2891 182.177 33.683C181.549 34.0769 180.832 34.2739 180.026 34.2739C179.22 34.2739 178.503 34.0769 177.875 33.683C177.247 33.2891 176.753 32.7289 176.393 32.0026C176.033 31.2763 175.853 30.4145 175.853 29.4174C175.853 28.4202 176.033 27.5585 176.393 26.8321C176.753 26.1058 177.247 25.5457 177.875 25.1517C178.503 24.7578 179.22 24.5608 180.026 24.5608C180.832 24.5608 181.549 24.7578 182.177 25.1517C182.805 25.5457 183.299 26.1058 183.659 26.8321C184.019 27.5585 184.199 28.4202 184.199 29.4174ZM183.091 29.4174C183.091 28.5987 182.954 27.9078 182.68 27.3446C182.41 26.7814 182.042 26.3551 181.577 26.0658C181.116 25.7765 180.598 25.6319 180.026 25.6319C179.454 25.6319 178.935 25.7765 178.47 26.0658C178.009 26.3551 177.641 26.7814 177.367 27.3446C177.096 27.9078 176.961 28.5987 176.961 29.4174C176.961 30.236 177.096 30.927 177.367 31.4902C177.641 32.0534 178.009 32.4796 178.47 32.7689C178.935 33.0582 179.454 33.2029 180.026 33.2029C180.598 33.2029 181.116 33.0582 181.577 32.7689C182.042 32.4796 182.41 32.0534 182.68 31.4902C182.954 30.927 183.091 30.236 183.091 29.4174ZM186.124 34.1446V24.6901H189.319C190.058 24.6901 190.664 24.8163 191.138 25.0686C191.612 25.3179 191.963 25.6611 192.19 26.0981C192.418 26.5351 192.532 27.0322 192.532 27.5892C192.532 28.1463 192.418 28.6403 192.19 29.0711C191.963 29.502 191.613 29.8405 191.142 30.0868C190.672 30.3299 190.07 30.4515 189.337 30.4515H186.752V29.4174H189.301C189.805 29.4174 190.211 29.3435 190.519 29.1958C190.83 29.048 191.055 28.8388 191.193 28.5679C191.335 28.294 191.406 27.9678 191.406 27.5892C191.406 27.2107 191.335 26.8798 191.193 26.5967C191.052 26.3136 190.825 26.095 190.515 25.9412C190.204 25.7842 189.793 25.7057 189.282 25.7057H187.269V34.1446H186.124ZM190.575 29.8975L192.901 34.1446H191.572L189.282 29.8975H190.575ZM194.44 34.1446V24.6901H200.146V25.7057H195.585V28.9003H199.85V29.9159H195.585V33.129H200.22V34.1446H194.44ZM207.38 27.0537C207.324 26.5859 207.1 26.2228 206.706 25.9642C206.312 25.7057 205.829 25.5765 205.256 25.5765C204.838 25.5765 204.471 25.6442 204.157 25.7796C203.847 25.915 203.604 26.1012 203.428 26.3382C203.256 26.5752 203.17 26.8444 203.17 27.1461C203.17 27.3984 203.23 27.6154 203.35 27.797C203.473 27.9755 203.63 28.1248 203.82 28.2448C204.011 28.3617 204.211 28.4587 204.421 28.5356C204.63 28.6095 204.822 28.6695 204.998 28.7157L205.958 28.9742C206.204 29.0388 206.478 29.1281 206.78 29.2419C207.084 29.3558 207.375 29.5112 207.652 29.7082C207.932 29.9021 208.163 30.1514 208.345 30.4561C208.526 30.7608 208.617 31.1347 208.617 31.5779C208.617 32.0888 208.483 32.5504 208.215 32.9628C207.951 33.3752 207.563 33.703 207.052 33.9461C206.544 34.1893 205.927 34.3108 205.201 34.3108C204.524 34.3108 203.937 34.2016 203.442 33.9831C202.95 33.7645 202.562 33.4599 202.279 33.069C201.999 32.6781 201.84 32.2242 201.803 31.7071H202.985C203.016 32.0641 203.136 32.3596 203.345 32.5935C203.557 32.8243 203.825 32.9967 204.148 33.1105C204.474 33.2213 204.825 33.2767 205.201 33.2767C205.638 33.2767 206.03 33.206 206.378 33.0644C206.726 32.9197 207.001 32.7197 207.204 32.4642C207.407 32.2057 207.509 31.9041 207.509 31.5594C207.509 31.2455 207.421 30.99 207.246 30.7931C207.07 30.5961 206.84 30.4361 206.553 30.313C206.267 30.1899 205.958 30.0821 205.626 29.9898L204.462 29.6574C203.724 29.4451 203.139 29.1419 202.708 28.748C202.277 28.354 202.062 27.8385 202.062 27.2015C202.062 26.6721 202.205 26.2105 202.491 25.8165C202.78 25.4195 203.168 25.1117 203.654 24.8932C204.144 24.6716 204.69 24.5608 205.293 24.5608C205.903 24.5608 206.444 24.6701 206.918 24.8886C207.392 25.104 207.768 25.3995 208.045 25.775C208.325 26.1504 208.472 26.5767 208.488 27.0537H207.38ZM213.343 24.6901H214.654L217.276 29.1034H217.387L220.009 24.6901H221.32L217.904 30.2483V34.1446H216.759V30.2483L213.343 24.6901ZM115.533 50.1446H114.332L117.804 40.6901H118.986L122.457 50.1446H121.257L118.432 42.1858H118.358L115.533 50.1446ZM115.976 46.4515H120.814V47.4671H115.976V46.4515ZM130.135 40.6901H131.279V46.95C131.279 47.5963 131.127 48.1734 130.822 48.6812C130.521 49.1859 130.095 49.5845 129.544 49.8769C128.993 50.1662 128.346 50.3108 127.605 50.3108C126.863 50.3108 126.217 50.1662 125.666 49.8769C125.115 49.5845 124.687 49.1859 124.382 48.6812C124.081 48.1734 123.93 47.5963 123.93 46.95V40.6901H125.075V46.8577C125.075 47.3194 125.176 47.7302 125.38 48.0903C125.583 48.4473 125.872 48.7289 126.248 48.9351C126.626 49.1382 127.078 49.2398 127.605 49.2398C128.131 49.2398 128.583 49.1382 128.962 48.9351C129.341 48.7289 129.63 48.4473 129.83 48.0903C130.033 47.7302 130.135 47.3194 130.135 46.8577V40.6901ZM136.483 50.1446H133.566V40.6901H136.613C137.53 40.6901 138.315 40.8794 138.967 41.2579C139.62 41.6334 140.12 42.1735 140.467 42.8783C140.815 43.58 140.989 44.4202 140.989 45.3989C140.989 46.3837 140.814 47.2316 140.463 47.9426C140.112 48.6504 139.601 49.1952 138.93 49.5768C138.259 49.9554 137.444 50.1446 136.483 50.1446ZM134.711 49.129H136.41C137.191 49.129 137.839 48.9782 138.353 48.6766C138.867 48.375 139.25 47.9457 139.503 47.3886C139.755 46.8315 139.881 46.1683 139.881 45.3989C139.881 44.6356 139.756 43.9786 139.507 43.4277C139.258 42.8737 138.886 42.449 138.39 42.1535C137.895 41.855 137.277 41.7057 136.539 41.7057H134.711V49.129ZM144.054 40.6901V50.1446H142.91V40.6901H144.054ZM145.833 41.7057V40.6901H152.924V41.7057H149.951V50.1446H148.806V41.7057H145.833ZM162.275 45.4174C162.275 46.4145 162.094 47.2763 161.734 48.0026C161.374 48.7289 160.88 49.2891 160.252 49.683C159.625 50.0769 158.908 50.2739 158.101 50.2739C157.295 50.2739 156.578 50.0769 155.95 49.683C155.322 49.2891 154.828 48.7289 154.468 48.0026C154.108 47.2763 153.928 46.4145 153.928 45.4174C153.928 44.4202 154.108 43.5585 154.468 42.8321C154.828 42.1058 155.322 41.5457 155.95 41.1517C156.578 40.7578 157.295 40.5608 158.101 40.5608C158.908 40.5608 159.625 40.7578 160.252 41.1517C160.88 41.5457 161.374 42.1058 161.734 42.8321C162.094 43.5585 162.275 44.4202 162.275 45.4174ZM161.167 45.4174C161.167 44.5987 161.03 43.9078 160.756 43.3446C160.485 42.7814 160.117 42.3551 159.652 42.0658C159.191 41.7765 158.674 41.6319 158.101 41.6319C157.529 41.6319 157.01 41.7765 156.545 42.0658C156.084 42.3551 155.716 42.7814 155.442 43.3446C155.171 43.9078 155.036 44.5987 155.036 45.4174C155.036 46.236 155.171 46.927 155.442 47.4902C155.716 48.0534 156.084 48.4796 156.545 48.7689C157.01 49.0582 157.529 49.2029 158.101 49.2029C158.674 49.2029 159.191 49.0582 159.652 48.7689C160.117 48.4796 160.485 48.0534 160.756 47.4902C161.03 46.927 161.167 46.236 161.167 45.4174ZM164.2 50.1446V40.6901H167.394C168.133 40.6901 168.739 40.8163 169.213 41.0686C169.687 41.3179 170.038 41.6611 170.266 42.0981C170.493 42.5351 170.607 43.0322 170.607 43.5892C170.607 44.1463 170.493 44.6403 170.266 45.0711C170.038 45.502 169.689 45.8405 169.218 46.0868C168.747 46.3299 168.145 46.4515 167.413 46.4515H164.827V45.4174H167.376C167.88 45.4174 168.287 45.3435 168.594 45.1958C168.905 45.048 169.13 44.8388 169.268 44.5679C169.41 44.294 169.481 43.9678 169.481 43.5892C169.481 43.2107 169.41 42.8798 169.268 42.5967C169.127 42.3136 168.901 42.095 168.59 41.9412C168.279 41.7842 167.868 41.7057 167.357 41.7057H165.344V50.1446H164.2ZM168.65 45.8975L170.977 50.1446H169.647L167.357 45.8975H168.65ZM172.515 50.1446V40.6901H178.221V41.7057H173.66V44.9003H177.926V45.9159H173.66V49.129H178.295V50.1446H172.515ZM185.455 43.0537C185.4 42.5859 185.175 42.2228 184.781 41.9642C184.387 41.7057 183.904 41.5765 183.331 41.5765C182.913 41.5765 182.547 41.6442 182.233 41.7796C181.922 41.915 181.679 42.1012 181.503 42.3382C181.331 42.5752 181.245 42.8444 181.245 43.1461C181.245 43.3984 181.305 43.6154 181.425 43.797C181.548 43.9755 181.705 44.1248 181.896 44.2448C182.086 44.3617 182.287 44.4587 182.496 44.5356C182.705 44.6095 182.897 44.6695 183.073 44.7157L184.033 44.9742C184.279 45.0388 184.553 45.1281 184.855 45.2419C185.16 45.3558 185.45 45.5112 185.727 45.7082C186.007 45.9021 186.238 46.1514 186.42 46.4561C186.601 46.7608 186.692 47.1347 186.692 47.5779C186.692 48.0888 186.558 48.5504 186.291 48.9628C186.026 49.3752 185.638 49.703 185.127 49.9461C184.619 50.1893 184.002 50.3108 183.276 50.3108C182.599 50.3108 182.013 50.2016 181.517 49.9831C181.025 49.7645 180.637 49.4599 180.354 49.069C180.074 48.6781 179.915 48.2242 179.878 47.7071H181.06C181.091 48.0641 181.211 48.3596 181.42 48.5935C181.633 48.8243 181.9 48.9967 182.223 49.1105C182.55 49.2213 182.901 49.2767 183.276 49.2767C183.713 49.2767 184.105 49.206 184.453 49.0644C184.801 48.9197 185.076 48.7197 185.28 48.4642C185.483 48.2057 185.584 47.9041 185.584 47.5594C185.584 47.2455 185.497 46.99 185.321 46.7931C185.146 46.5961 184.915 46.4361 184.629 46.313C184.342 46.1899 184.033 46.0821 183.701 45.9898L182.537 45.6574C181.799 45.4451 181.214 45.1419 180.783 44.748C180.352 44.354 180.137 43.8385 180.137 43.2015C180.137 42.6721 180.28 42.2105 180.566 41.8165C180.855 41.4195 181.243 41.1117 181.729 40.8932C182.219 40.6716 182.765 40.5608 183.368 40.5608C183.978 40.5608 184.519 40.6701 184.993 40.8886C185.467 41.104 185.843 41.3995 186.12 41.775C186.4 42.1504 186.548 42.5767 186.563 43.0537H185.455Z" fill="#7B7A7E"/>
<path d="M19.064 22.3486V21.0046H33.56C36.92 21.0046 39.512 21.7566 41.336 23.2606C43.16 24.7646 44.072 26.7806 44.072 29.3086V30.4126C44.072 32.3326 43.544 33.9646 42.488 35.3086C41.432 36.6526 39.912 37.6126 37.928 38.1886L43.928 49.6126C44.312 50.3166 44.6 50.8286 44.792 51.1486C44.984 51.4686 45.16 51.6766 45.32 51.7726C45.512 51.8366 45.768 51.9006 46.088 51.9646L48.248 52.3006V53.6446H39.272L32.024 38.7646H28.52V49.6126C28.52 50.7006 28.568 51.3566 28.664 51.5806C28.76 51.7726 29.064 51.9006 29.576 51.9646L32.216 52.3006V53.6446H19.064V52.3006L21.704 51.9646C22.216 51.9006 22.52 51.7726 22.616 51.5806C22.712 51.3566 22.76 50.7006 22.76 49.6126V25.0366C22.76 23.9486 22.712 23.3086 22.616 23.1166C22.52 22.8926 22.216 22.7486 21.704 22.6846L19.064 22.3486ZM33.56 22.6846H28.52V37.0846H33.56C34.968 37.0846 36.04 36.6526 36.776 35.7886C37.544 34.8926 37.928 33.2606 37.928 30.8926V28.8286C37.928 26.4606 37.544 24.8446 36.776 23.9806C36.04 23.1166 34.968 22.6846 33.56 22.6846ZM51.9376 52.6726C53.0416 52.6726 53.9296 52.3246 54.6016 51.6286C55.2736 50.9086 55.6456 49.9726 55.7176 48.8206C55.7896 47.6686 55.4896 46.4326 54.8176 45.1126L58.0216 43.0246L62.4136 51.1606C62.7736 51.8326 63.0376 52.2286 63.2056 52.3486C63.3976 52.4446 63.6856 52.5166 64.0696 52.5646L65.8336 52.7446V53.6446H59.3896L57.0136 49.1806C56.9176 50.5006 56.4016 51.6406 55.4656 52.6006C54.5536 53.5366 53.1856 54.0046 51.3616 54.0046C49.1776 54.0046 47.4016 53.5126 46.0336 52.5286C44.6656 51.5446 43.9816 50.1286 43.9816 48.2806C43.9816 47.4886 44.1616 46.6966 44.5216 45.9046C44.8816 45.1126 45.5296 44.2966 46.4656 43.4566C47.4256 42.6166 48.7936 41.7166 50.5696 40.7566C48.8176 40.0126 47.4856 39.1006 46.5736 38.0206C45.6856 36.9406 45.2416 35.7886 45.2416 34.5646C45.2416 33.5806 45.5176 32.6566 46.0696 31.7926C46.6216 30.9046 47.4016 30.1846 48.4096 29.6326C49.4176 29.0806 50.6176 28.8046 52.0096 28.8046C53.4256 28.8046 54.6376 29.0686 55.6456 29.5966C56.6776 30.1006 57.4576 30.7846 57.9856 31.6486C58.5376 32.4886 58.8136 33.4246 58.8136 34.4566C58.8136 35.9206 58.2856 37.1566 57.2296 38.1646C56.1736 39.1726 54.8296 40.1206 53.1976 41.0086L51.9376 41.6926C50.5936 42.4366 49.6456 43.3126 49.0936 44.3206C48.5656 45.3286 48.3016 46.5286 48.3016 47.9206C48.3016 49.5286 48.6256 50.7286 49.2736 51.5206C49.9456 52.2886 50.8336 52.6726 51.9376 52.6726ZM49.5616 34.3126C49.5616 35.2726 49.7056 36.2566 49.9936 37.2646C50.2816 38.2726 50.8696 39.2206 51.7576 40.1086L52.0456 39.9646C52.9576 39.4846 53.5936 38.7766 53.9536 37.8406C54.3136 36.9046 54.4936 35.8006 54.4936 34.5286C54.4936 32.9446 54.2656 31.8046 53.8096 31.1086C53.3776 30.4126 52.7896 30.0646 52.0456 30.0646C51.3256 30.0646 50.7256 30.3766 50.2456 31.0006C49.7896 31.6246 49.5616 32.7286 49.5616 34.3126ZM62.7145 22.3486V21.0046H76.8745C80.9705 21.0046 84.1065 22.2046 86.2825 24.6046C88.4905 27.0046 89.5945 30.7326 89.5945 35.7886V38.8126C89.5945 43.8686 88.4905 47.6126 86.2825 50.0446C84.1065 52.4446 80.9705 53.6446 76.8745 53.6446H62.7145V52.3006L65.3545 51.9646C65.8665 51.9006 66.1705 51.7726 66.2665 51.5806C66.3625 51.3566 66.4105 50.7006 66.4105 49.6126V25.0366C66.4105 23.9486 66.3625 23.3086 66.2665 23.1166C66.1705 22.8926 65.8665 22.7486 65.3545 22.6846L62.7145 22.3486ZM76.6345 22.6846H72.1705V51.9646H76.6345C78.2665 51.9646 79.5785 51.6926 80.5705 51.1486C81.5625 50.5726 82.2825 49.5166 82.7305 47.9806C83.2105 46.4126 83.4505 44.1566 83.4505 41.2126V33.3886C83.4505 30.4446 83.2105 28.2046 82.7305 26.6686C82.2825 25.1326 81.5625 24.0926 80.5705 23.5486C79.5785 22.9726 78.2665 22.6846 76.6345 22.6846Z" fill="white"/>
</svg>
